<svg width="203" height="30" viewBox="0 0 203 30" fill="none" xmlns="http://www.w3.org/2000/svg">
    <path d="M15.0267 2H19.8867V23H15.0267V2ZM5.48672 23H0.626719V2H5.48672V23ZM15.3867 14.39H5.12672V10.28H15.3867V14.39ZM32.2052 23.24C30.4852 23.24 28.9552 22.88 27.6152 22.16C26.2952 21.44 25.2452 20.46 24.4652 19.22C23.7052 17.96 23.3252 16.53 23.3252 14.93C23.3252 13.31 23.7052 11.88 24.4652 10.64C25.2452 9.38 26.2952 8.4 27.6152 7.7C28.9552 6.98 30.4852 6.62 32.2052 6.62C33.9052 6.62 35.4252 6.98 36.7652 7.7C38.1052 8.4 39.1552 9.37 39.9152 10.61C40.6752 11.85 41.0552 13.29 41.0552 14.93C41.0552 16.53 40.6752 17.96 39.9152 19.22C39.1552 20.46 38.1052 21.44 36.7652 22.16C35.4252 22.88 33.9052 23.24 32.2052 23.24ZM32.2052 19.4C32.9852 19.4 33.6852 19.22 34.3052 18.86C34.9252 18.5 35.4152 17.99 35.7752 17.33C36.1352 16.65 36.3152 15.85 36.3152 14.93C36.3152 13.99 36.1352 13.19 35.7752 12.53C35.4152 11.87 34.9252 11.36 34.3052 11C33.6852 10.64 32.9852 10.46 32.2052 10.46C31.4252 10.46 30.7252 10.64 30.1052 11C29.4852 11.36 28.9852 11.87 28.6052 12.53C28.2452 13.19 28.0652 13.99 28.0652 14.93C28.0652 15.85 28.2452 16.65 28.6052 17.33C28.9852 17.99 29.4852 18.5 30.1052 18.86C30.7252 19.22 31.4252 19.4 32.2052 19.4ZM64.8534 6.62C66.1334 6.62 67.2634 6.88 68.2434 7.4C69.2434 7.9 70.0234 8.68 70.5834 9.74C71.1634 10.78 71.4534 12.12 71.4534 13.76V23H66.7734V14.48C66.7734 13.18 66.5034 12.22 65.9634 11.6C65.4234 10.98 64.6634 10.67 63.6834 10.67C63.0034 10.67 62.3934 10.83 61.8534 11.15C61.3134 11.45 60.8934 11.91 60.5934 12.53C60.2934 13.15 60.1434 13.94 60.1434 14.9V23H55.4634V14.48C55.4634 13.18 55.1934 12.22 54.6534 11.6C54.1334 10.98 53.3834 10.67 52.4034 10.67C51.7234 10.67 51.1134 10.83 50.5734 11.15C50.0334 11.45 49.6134 11.91 49.3134 12.53C49.0134 13.15 48.8634 13.94 48.8634 14.9V23H44.1834V6.86H48.6534V11.27L47.8134 9.98C48.3734 8.88 49.1634 8.05 50.1834 7.49C51.2234 6.91 52.4034 6.62 53.7234 6.62C55.2034 6.62 56.4934 7 57.5934 7.76C58.7134 8.5 59.4534 9.64 59.8134 11.18L58.1634 10.73C58.7034 9.47 59.5634 8.47 60.7434 7.73C61.9434 6.99 63.3134 6.62 64.8534 6.62ZM83.7755 23.24C81.9355 23.24 80.3155 22.88 78.9155 22.16C77.5355 21.44 76.4655 20.46 75.7055 19.22C74.9455 17.96 74.5655 16.53 74.5655 14.93C74.5655 13.31 74.9355 11.88 75.6755 10.64C76.4355 9.38 77.4655 8.4 78.7655 7.7C80.0655 6.98 81.5355 6.62 83.1755 6.62C84.7555 6.62 86.1755 6.96 87.4355 7.64C88.7155 8.3 89.7255 9.26 90.4655 10.52C91.2055 11.76 91.5755 13.25 91.5755 14.99C91.5755 15.17 91.5655 15.38 91.5455 15.62C91.5255 15.84 91.5055 16.05 91.4855 16.25H78.3755V13.52H89.0255L87.2255 14.33C87.2255 13.49 87.0555 12.76 86.7155 12.14C86.3755 11.52 85.9055 11.04 85.3055 10.7C84.7055 10.34 84.0055 10.16 83.2055 10.16C82.4055 10.16 81.6955 10.34 81.0755 10.7C80.4755 11.04 80.0055 11.53 79.6655 12.17C79.3255 12.79 79.1555 13.53 79.1555 14.39V15.11C79.1555 15.99 79.3455 16.77 79.7255 17.45C80.1255 18.11 80.6755 18.62 81.3755 18.98C82.0955 19.32 82.9355 19.49 83.8955 19.49C84.7555 19.49 85.5055 19.36 86.1455 19.1C86.8055 18.84 87.4055 18.45 87.9455 17.93L90.4355 20.63C89.6955 21.47 88.7655 22.12 87.6455 22.58C86.5255 23.02 85.2355 23.24 83.7755 23.24ZM95.0213 23V2H105.281C107.921 2 109.901 2.5 111.221 3.5C112.561 4.5 113.231 5.82 113.231 7.46C113.231 8.56 112.961 9.52 112.421 10.34C111.881 11.14 111.141 11.76 110.201 12.2C109.261 12.64 108.181 12.86 106.961 12.86L107.531 11.63C108.851 11.63 110.021 11.85 111.041 12.29C112.061 12.71 112.851 13.34 113.411 14.18C113.991 15.02 114.281 16.05 114.281 17.27C114.281 19.07 113.571 20.48 112.151 21.5C110.731 22.5 108.641 23 105.881 23H95.0213ZM99.8513 19.34H105.521C106.781 19.34 107.731 19.14 108.371 18.74C109.031 18.32 109.361 17.66 109.361 16.76C109.361 15.88 109.031 15.23 108.371 14.81C107.731 14.37 106.781 14.15 105.521 14.15H99.4913V10.61H104.681C105.861 10.61 106.761 10.41 107.381 10.01C108.021 9.59 108.341 8.96 108.341 8.12C108.341 7.3 108.021 6.69 107.381 6.29C106.761 5.87 105.861 5.66 104.681 5.66H99.8513V19.34ZM124.441 23.24C123.101 23.24 121.901 22.98 120.841 22.46C119.801 21.94 118.991 21.15 118.411 20.09C117.831 19.01 117.541 17.64 117.541 15.98V6.86H122.221V15.29C122.221 16.63 122.501 17.62 123.061 18.26C123.641 18.88 124.451 19.19 125.491 19.19C126.211 19.19 126.851 19.04 127.411 18.74C127.971 18.42 128.411 17.94 128.731 17.3C129.051 16.64 129.211 15.82 129.211 14.84V6.86H133.891V23H129.451V18.56L130.261 19.85C129.721 20.97 128.921 21.82 127.861 22.4C126.821 22.96 125.681 23.24 124.441 23.24ZM145.156 23.24C143.636 23.24 142.266 22.9 141.046 22.22C139.826 21.52 138.856 20.55 138.136 19.31C137.436 18.07 137.086 16.61 137.086 14.93C137.086 13.23 137.436 11.76 138.136 10.52C138.856 9.28 139.826 8.32 141.046 7.64C142.266 6.96 143.636 6.62 145.156 6.62C146.516 6.62 147.706 6.92 148.726 7.52C149.746 8.12 150.536 9.03 151.096 10.25C151.656 11.47 151.936 13.03 151.936 14.93C151.936 16.81 151.666 18.37 151.126 19.61C150.586 20.83 149.806 21.74 148.786 22.34C147.786 22.94 146.576 23.24 145.156 23.24ZM145.966 19.4C146.726 19.4 147.416 19.22 148.036 18.86C148.656 18.5 149.146 17.99 149.506 17.33C149.886 16.65 150.076 15.85 150.076 14.93C150.076 13.99 149.886 13.19 149.506 12.53C149.146 11.87 148.656 11.36 148.036 11C147.416 10.64 146.726 10.46 145.966 10.46C145.186 10.46 144.486 10.64 143.866 11C143.246 11.36 142.746 11.87 142.366 12.53C142.006 13.19 141.826 13.99 141.826 14.93C141.826 15.85 142.006 16.65 142.366 17.33C142.746 17.99 143.246 18.5 143.866 18.86C144.486 19.22 145.186 19.4 145.966 19.4ZM150.196 23V19.7L150.286 14.9L149.986 10.13V0.739999H154.666V23H150.196ZM165.928 23.24C164.408 23.24 163.038 22.9 161.818 22.22C160.598 21.52 159.628 20.55 158.908 19.31C158.208 18.07 157.858 16.61 157.858 14.93C157.858 13.23 158.208 11.76 158.908 10.52C159.628 9.28 160.598 8.32 161.818 7.64C163.038 6.96 164.408 6.62 165.928 6.62C167.288 6.62 168.478 6.92 169.498 7.52C170.518 8.12 171.308 9.03 171.868 10.25C172.428 11.47 172.708 13.03 172.708 14.93C172.708 16.81 172.438 18.37 171.898 19.61C171.358 20.83 170.578 21.74 169.558 22.34C168.558 22.94 167.348 23.24 165.928 23.24ZM166.738 19.4C167.498 19.4 168.188 19.22 168.808 18.86C169.428 18.5 169.918 17.99 170.278 17.33C170.658 16.65 170.848 15.85 170.848 14.93C170.848 13.99 170.658 13.19 170.278 12.53C169.918 11.87 169.428 11.36 168.808 11C168.188 10.64 167.498 10.46 166.738 10.46C165.958 10.46 165.258 10.64 164.638 11C164.018 11.36 163.518 11.87 163.138 12.53C162.778 13.19 162.598 13.99 162.598 14.93C162.598 15.85 162.778 16.65 163.138 17.33C163.518 17.99 164.018 18.5 164.638 18.86C165.258 19.22 165.958 19.4 166.738 19.4ZM170.968 23V19.7L171.058 14.9L170.758 10.13V0.739999H175.438V23H170.968ZM181.809 29.06C180.969 29.06 180.139 28.93 179.319 28.67C178.499 28.41 177.829 28.05 177.309 27.59L179.019 24.26C179.379 24.58 179.789 24.83 180.249 25.01C180.729 25.19 181.199 25.28 181.659 25.28C182.319 25.28 182.839 25.12 183.219 24.8C183.619 24.5 183.979 23.99 184.299 23.27L185.139 21.29L185.499 20.78L191.289 6.86H195.789L188.499 23.99C187.979 25.29 187.379 26.31 186.699 27.05C186.039 27.79 185.299 28.31 184.479 28.61C183.679 28.91 182.789 29.06 181.809 29.06ZM184.569 23.63L177.369 6.86H182.199L187.779 20.36L184.569 23.63Z" fill="white"/>
    <path d="M199.469 23.24C198.669 23.24 197.979 22.97 197.399 22.43C196.839 21.87 196.559 21.16 196.559 20.3C196.559 19.44 196.839 18.75 197.399 18.23C197.979 17.69 198.669 17.42 199.469 17.42C200.289 17.42 200.979 17.69 201.539 18.23C202.099 18.75 202.379 19.44 202.379 20.3C202.379 21.16 202.099 21.87 201.539 22.43C200.979 22.97 200.289 23.24 199.469 23.24Z" fill="#FA8C16"/>
</svg>
